<svg id="Layer_1" data-name="Layer 1" xmlns="http://www.w3.org/2000/svg" width="210" height="58" viewBox="0 0 210 58">
  <defs>
    <style>
      .cls-1 {
        fill: #c8aa82;
      }
    </style>
  </defs>
  <title>Excellence_Punta_Cana_Logo</title>
  <g>
    <path class="cls-1" d="M158.241,8.141a2.228,2.228,0,0,1,.846,2V23.52L145.634,7.95h-2.527v.191a2.82,2.82,0,0,1,1.116,2.363V26.469a2.3,2.3,0,0,1-.876,1.974v.193h3.079v-.164s-.847-.371-.847-2V12.1l14.232,16.536h.633V10.145a2.159,2.159,0,0,1,.875-1.954V7.95h-3.078Z"/>
    <path class="cls-1" d="M42.192,28.444a5.6,5.6,0,0,1-1.726-1.773L33.69,16.9l4.748-6.843-.009.013A6.67,6.67,0,0,1,40.42,8.141V7.95H37.629v.191c.1.02.2.265.06.466L32.852,15.73l-4.6-6.748,0,0c-.365-.522-.024-.837-.024-.837V7.95H24.043v.192a9.984,9.984,0,0,1,1.94,2.154h0l5.141,7.449-6.013,8.513a9.214,9.214,0,0,1-1.932,2.186v.191h2.537v-.191s-.249-.153-.042-.471l6.279-9,6.15,8.832c.287.439-.05.637-.05.637v.191h4.139Z"/>
    <path class="cls-1" d="M15.391,27.481H11.1c-1.75,0-2.183-.822-2.183-2.417V17.571h3.912a14.327,14.327,0,0,1,4.175.6l.183-.056.293-1.774-.182-.058a22.337,22.337,0,0,1-2.791.132H8.916V9.105H14.7a8.019,8.019,0,0,1,4.59,1.508l.187-.043L18.369,7.95H5v.194a2.591,2.591,0,0,1,1.116,2.462V25.98A3.125,3.125,0,0,1,5,28.444v.192H19.579l1.241-2.829-.182-.06a7.807,7.807,0,0,1-5.247,1.734"/>
    <path class="cls-1" d="M76.793,27.481H72.5c-1.75,0-2.183-.822-2.183-2.417V17.571h3.912a14.327,14.327,0,0,1,4.175.6l.183-.056.294-1.774-.183-.058a22.337,22.337,0,0,1-2.791.132h-5.59V9.105h5.788a8.019,8.019,0,0,1,4.59,1.508l.188-.043L79.77,7.95H66.4v.194a2.591,2.591,0,0,1,1.116,2.462V25.98A3.125,3.125,0,0,1,66.4,28.444v.192H80.98l1.242-2.829-.182-.06a7.807,7.807,0,0,1-5.247,1.734"/>
    <path class="cls-1" d="M133.441,27.481h-4.292c-1.751,0-2.184-.822-2.184-2.417V17.571h3.913a14.324,14.324,0,0,1,4.174.6l.183-.056.294-1.774-.183-.058a22.337,22.337,0,0,1-2.791.132h-5.59V9.105h5.788a8.019,8.019,0,0,1,4.59,1.508l.188-.043-1.112-2.62H123.05v.194a2.592,2.592,0,0,1,1.115,2.462V25.98a3.126,3.126,0,0,1-1.115,2.464v.192h14.578l1.242-2.829-.182-.06a7.807,7.807,0,0,1-5.247,1.734"/>
    <path class="cls-1" d="M199.571,27.481h-4.292c-1.75,0-2.184-.822-2.184-2.417V17.571h3.913a14.324,14.324,0,0,1,4.174.6l.183-.056.294-1.774-.183-.058a22.337,22.337,0,0,1-2.791.132H193.1V9.105h5.789a8.018,8.018,0,0,1,4.589,1.508l.188-.043-1.112-2.62H189.18v.194a2.591,2.591,0,0,1,1.116,2.462V25.98a3.125,3.125,0,0,1-1.116,2.464v.192h14.579L205,25.807l-.182-.06a7.807,7.807,0,0,1-5.247,1.734"/>
    <path class="cls-1" d="M184.073,25.085a20.588,20.588,0,0,1-2.656,1.821,9.181,9.181,0,0,1-4.27.979,7.9,7.9,0,0,1-6.075-2.575,11.181,11.181,0,0,1-2.276-7.133c0-2.675.654-5.446,1.938-7.056a7.051,7.051,0,0,1,5.807-2.564,9.5,9.5,0,0,1,4.43.9,8.973,8.973,0,0,1,2.5,1.816l.182-.06V8.537h-.094a.554.554,0,0,1-.454.271.806.806,0,0,1-.265-.055c-.451-.163-1.123-.5-2.1-.788a14,14,0,0,0-4.019-.534,11.139,11.139,0,0,0-7.822,2.971,10.764,10.764,0,0,0-3.184,7.948,10.581,10.581,0,0,0,3.138,7.925,11.32,11.32,0,0,0,7.926,2.88,10.708,10.708,0,0,0,7.639-3.206l-.16-.81Z"/>
    <path class="cls-1" d="M61.786,25.085a20.55,20.55,0,0,1-2.657,1.821,9.174,9.174,0,0,1-4.269.979,7.9,7.9,0,0,1-6.075-2.575,11.175,11.175,0,0,1-2.276-7.133c0-2.675.654-5.446,1.938-7.056a7.048,7.048,0,0,1,5.807-2.564,9.494,9.494,0,0,1,4.429.9,8.964,8.964,0,0,1,2.5,1.816l.182-.06V8.537H61.27a.553.553,0,0,1-.453.271.806.806,0,0,1-.266-.055c-.451-.163-1.123-.5-2.105-.788a14,14,0,0,0-4.019-.534A11.142,11.142,0,0,0,46.6,10.4a10.763,10.763,0,0,0-3.183,7.948,10.578,10.578,0,0,0,3.138,7.925,11.32,11.32,0,0,0,7.926,2.88,10.7,10.7,0,0,0,7.638-3.206l-.159-.81Z"/>
    <path class="cls-1" d="M119.151,25.747a7.807,7.807,0,0,1-5.247,1.734h-3.33c-1.75,0-2.183-.822-2.183-2.417V10.405A2.529,2.529,0,0,1,109.5,8.144V7.95h-5.025v.194a2.59,2.59,0,0,1,1.116,2.461V25.98a3.125,3.125,0,0,1-1.116,2.464v.192h13.617l1.241-2.829Z"/>
    <path class="cls-1" d="M101.081,25.747a7.807,7.807,0,0,1-5.247,1.734H92.5c-1.75,0-2.184-.822-2.184-2.417V10.405a2.529,2.529,0,0,1,1.109-2.261V7.95H86.405v.194a2.591,2.591,0,0,1,1.115,2.461V25.98a3.126,3.126,0,0,1-1.115,2.464v.192h13.617l1.241-2.829Z"/>
    <path d="M55.347,46.478h-1.1v2.886h-.712V42.446h1.729a2.02,2.02,0,1,1,.08,4.032m-.257-3.4h-.84v2.807h1.067a1.33,1.33,0,0,0,1.413-1.4c0-.939-.682-1.4-1.64-1.4"/>
    <path d="M62.825,49.541c-1.661,0-2.787-.751-2.787-2.411V42.446h.711v4.486a1.828,1.828,0,0,0,2.095,1.977A1.783,1.783,0,0,0,64.8,46.972V42.446h.652v4.546a2.457,2.457,0,0,1-2.628,2.549"/>
    <polygon points="73.768 49.453 69.182 43.859 69.123 43.859 69.123 49.364 68.471 49.364 68.471 42.308 68.757 42.308 73.333 47.832 73.372 47.822 73.372 42.446 74.024 42.446 74.024 49.453 73.768 49.453"/>
    <polygon points="79.517 43.078 79.517 49.364 78.805 49.364 78.805 43.078 76.503 43.078 76.582 42.446 81.74 42.446 81.819 43.078 79.517 43.078"/>
    <path d="M88.2,49.364l-1.027-2.688H84.69l-1.028,2.688h-.681l2.747-7.017h.454l2.758,7.017Zm-2.263-5.91h-.019l-1,2.619h2.015Z"/>
    <path d="M99.4,49.541a4.269,4.269,0,0,1-1.956-.444,3.515,3.515,0,0,1-1.749-3.172,3.478,3.478,0,0,1,3.626-3.657,6.363,6.363,0,0,1,2.352.415v.751h-.029a6,6,0,0,0-2.293-.524A2.693,2.693,0,0,0,96.5,45.865a2.847,2.847,0,0,0,1.957,2.866,4.645,4.645,0,0,0,1.067.119,5.57,5.57,0,0,0,2.174-.524l.03.01v.711a5.844,5.844,0,0,1-2.333.494"/>
    <path d="M109.005,49.364l-1.028-2.688H105.5l-1.028,2.688h-.682l2.747-7.017h.455l2.757,7.017Zm-2.263-5.91h-.02l-1,2.619h2.016Z"/>
    <polygon points="117.632 49.453 113.047 43.859 112.987 43.859 112.987 49.364 112.335 49.364 112.335 42.308 112.622 42.308 117.197 47.832 117.237 47.822 117.237 42.446 117.889 42.446 117.889 49.453 117.632 49.453"/>
    <path d="M125.775,49.364l-1.027-2.688h-2.481l-1.028,2.688h-.682l2.748-7.017h.454l2.757,7.017Zm-2.263-5.91h-.02l-1,2.619h2.016Z"/>
    <polygon points="128.967 50.569 128.602 50.52 128.839 48.553 129.6 48.553 129.62 48.662 128.967 50.569"/>
    <path d="M140.4,49.136a5.013,5.013,0,0,1-1.492.228H136.5V42.446h1.729a5.564,5.564,0,0,1,2.649.464,3.171,3.171,0,0,1,1.749,2.985,3.284,3.284,0,0,1-2.224,3.241m.316-5.494a4.364,4.364,0,0,0-2.589-.564h-.919v5.653h1.542a5.508,5.508,0,0,0,1.215-.128,2.442,2.442,0,0,0,1.858-2.639,2.627,2.627,0,0,0-1.107-2.322"/>
    <path d="M144.88,49.5a.531.531,0,0,1-.534-.534.52.52,0,0,1,.524-.523.531.531,0,0,1,.543.523.538.538,0,0,1-.533.534"/>
    <path d="M152.805,49.364,149.89,46.34H148.9v3.024h-.712V42.446h1.74a2.542,2.542,0,0,1,.978.148,1.864,1.864,0,0,1,1.067,1.759,1.921,1.921,0,0,1-1.294,1.838l2.964,3.133v.04Zm-3.073-6.286h-.83v2.649H150a1.206,1.206,0,0,0,1.225-1.295c0-.929-.6-1.354-1.492-1.354"/>
    <path d="M155.928,49.5a.531.531,0,0,1-.533-.534.52.52,0,0,1,.523-.523.531.531,0,0,1,.544.523.538.538,0,0,1-.534.534"/>
  </g>
</svg>
